<svg width="118" height="31" viewBox="0 0 118 31" fill="none" xmlns="http://www.w3.org/2000/svg">
<circle cx="15" cy="11" r="3" fill="#E08300"/>
<circle cx="3" cy="3" r="3" fill="#27A599"/>
<circle cx="30" cy="3" r="3" fill="#27A599"/>
<circle cx="6" cy="11" r="3" fill="#27A599"/>
<circle cx="12" cy="3" r="3" fill="#E08300"/>
<circle cx="21" cy="3" r="3" fill="#27A599"/>
<circle cx="24" cy="11" r="3" fill="#E08300"/>
<circle cx="12" cy="19" r="3" fill="#27A599"/>
<circle cx="20" cy="19" r="3" fill="#27A599"/>
<g filter="url(#filter0_d_1829_9146)">
<path d="M35.848 14.544C35.848 15.3653 35.6293 16.064 35.192 16.64C34.7547 17.2053 34.056 17.488 33.096 17.488C32.136 17.488 31.4267 17.216 30.968 16.672C30.5093 16.128 30.28 15.472 30.28 14.704C30.28 13.488 30.8507 12.5333 31.992 11.84C33.1333 11.1467 34.9573 10.8 37.464 10.8H44.024V14.08H42.184V12.72H38.664V15.504H39.912V14.544H41.752V18.384H39.912V17.424H38.664V20.08H40.136V22H35.032V20.08H36.584V12.736C34.984 12.7787 33.864 12.9547 33.224 13.264C32.5947 13.5627 32.28 14.0213 32.28 14.64C32.28 15.2587 32.552 15.568 33.096 15.568C33.5973 15.568 33.848 15.2267 33.848 14.544H35.848ZM48.1418 22.176C47.1391 22.176 46.4458 21.8827 46.0618 21.296C45.6778 20.6987 45.4858 19.8827 45.4858 18.848V15.68H44.2538V14H47.5658V18.848C47.5658 19.3173 47.6298 19.6693 47.7578 19.904C47.8964 20.1387 48.1898 20.256 48.6378 20.256C49.0858 20.256 49.7471 19.9307 50.6218 19.28V15.76H49.6298V14H52.7018V20.32H54.0138V21.712C53.5551 21.9573 52.9524 22.08 52.2058 22.08C51.4698 22.08 50.9951 21.808 50.7818 21.264C49.8004 21.872 48.9204 22.176 48.1418 22.176ZM58.2199 22.176C57.2172 22.176 56.5239 21.8827 56.1399 21.296C55.7559 20.6987 55.5639 19.8827 55.5639 18.848V15.68H54.3319V14H57.6439V18.848C57.6439 19.3173 57.7079 19.6693 57.8359 19.904C57.9745 20.1387 58.2679 20.256 58.7159 20.256C59.1639 20.256 59.8252 19.9307 60.6999 19.28V15.76H59.7079V14H62.7799V20.32H64.0919V21.712C63.6332 21.9573 63.0305 22.08 62.2839 22.08C61.5479 22.08 61.0732 21.808 60.8599 21.264C59.8785 21.872 58.9985 22.176 58.2199 22.176ZM72.17 10V20.32H73.482V21.712C73.0233 21.9573 72.4473 22.08 71.754 22.08C70.698 22.08 70.1433 21.76 70.09 21.12C69.5993 21.8133 68.97 22.16 68.202 22.16C67.114 22.16 66.2767 21.776 65.69 21.008C65.1033 20.2293 64.81 19.2373 64.81 18.032C64.81 16.816 65.146 15.8133 65.818 15.024C66.5007 14.2347 67.4767 13.84 68.746 13.84C69.1087 13.84 69.5567 13.872 70.09 13.936V11.76H68.858V10H72.17ZM66.89 17.968C66.89 18.6293 67.0233 19.1733 67.29 19.6C67.5673 20.0267 67.946 20.24 68.426 20.24C68.906 20.24 69.3007 19.9893 69.61 19.488C69.93 18.9867 70.09 18.384 70.09 17.68V16.032C69.674 15.8507 69.2633 15.76 68.858 15.76C68.2607 15.76 67.7807 15.9627 67.418 16.368C67.066 16.7627 66.89 17.296 66.89 17.968ZM83.4418 14.544C83.4418 15.3653 83.2231 16.064 82.7858 16.64C82.3484 17.2053 81.6498 17.488 80.6898 17.488C79.7298 17.488 79.0204 17.216 78.5617 16.672C78.1031 16.128 77.8737 15.472 77.8737 14.704C77.8737 13.488 78.4444 12.5333 79.5858 11.84C80.7271 11.1467 82.5511 10.8 85.0578 10.8H91.6178V14.08H89.7778V12.72H86.2578V15.504H87.5058V14.544H89.3458V18.384H87.5058V17.424H86.2578V20.08H87.7298V22H82.6258V20.08H84.1778V12.736C82.5778 12.7787 81.4578 12.9547 80.8178 13.264C80.1884 13.5627 79.8738 14.0213 79.8738 14.64C79.8738 15.2587 80.1458 15.568 80.6898 15.568C81.1911 15.568 81.4418 15.2267 81.4418 14.544H83.4418ZM96.9675 20.96C96.3062 21.76 95.5702 22.16 94.7595 22.16C93.9488 22.16 93.3142 21.952 92.8555 21.536C92.3968 21.12 92.1675 20.5387 92.1675 19.792C92.1675 19.0347 92.4662 18.3947 93.0635 17.872C93.6608 17.3493 94.5408 17.088 95.7035 17.088H96.9675V16.512C96.9675 16.0107 96.6528 15.76 96.0235 15.76C95.3942 15.76 94.8342 15.8293 94.3435 15.968V16.88H92.5035V14.496C93.0262 14.2933 93.6342 14.1333 94.3275 14.016C95.0315 13.8987 95.6182 13.84 96.0875 13.84C97.0155 13.84 97.7408 14.0853 98.2635 14.576C98.7862 15.056 99.0475 15.7013 99.0475 16.512V20.32H100.36V21.712C99.9008 21.9573 99.3248 22.08 98.6315 22.08C97.5222 22.08 96.9675 21.7067 96.9675 20.96ZM94.9035 20.24C95.6395 20.24 96.3275 19.8027 96.9675 18.928V18.864H95.6875C95.1968 18.864 94.8342 18.9493 94.5995 19.12C94.3648 19.2907 94.2475 19.52 94.2475 19.808C94.2475 20.096 94.4662 20.24 94.9035 20.24ZM101.172 15.76V14H104.484V20.24H105.876V22H101.156V20.24H102.404V15.76H101.172ZM103.444 13.216C103.113 13.216 102.841 13.0987 102.628 12.864C102.425 12.6293 102.324 12.3467 102.324 12.016C102.324 11.6853 102.436 11.4027 102.66 11.168C102.884 10.9227 103.161 10.8 103.492 10.8C103.833 10.8 104.105 10.9173 104.308 11.152C104.51 11.3867 104.612 11.6693 104.612 12C104.612 12.3307 104.5 12.6187 104.276 12.864C104.052 13.0987 103.774 13.216 103.444 13.216ZM109.913 20.24H111.065V22H106.601V20.24H107.833V15.76H106.601V14H109.609L109.801 14.848C110.793 14.176 111.657 13.84 112.393 13.84L113.529 14.08L112.921 16.112L112.201 15.92C111.476 15.92 110.713 16.144 109.913 16.592V20.24Z" fill="#27A599"/>
<path d="M35.848 14.544H36.848V13.544H35.848V14.544ZM35.192 16.64L35.983 17.2519L35.9884 17.2447L35.192 16.64ZM30.968 16.672L31.7325 16.0274L30.968 16.672ZM31.992 11.84L31.4728 10.9853L31.4728 10.9853L31.992 11.84ZM44.024 10.8H45.024V9.8H44.024V10.8ZM44.024 14.08V15.08H45.024V14.08H44.024ZM42.184 14.08H41.184V15.08H42.184V14.08ZM42.184 12.72H43.184V11.72H42.184V12.72ZM38.664 12.72V11.72H37.664V12.72H38.664ZM38.664 15.504H37.664V16.504H38.664V15.504ZM39.912 15.504V16.504H40.912V15.504H39.912ZM39.912 14.544V13.544H38.912V14.544H39.912ZM41.752 14.544H42.752V13.544H41.752V14.544ZM41.752 18.384V19.384H42.752V18.384H41.752ZM39.912 18.384H38.912V19.384H39.912V18.384ZM39.912 17.424H40.912V16.424H39.912V17.424ZM38.664 17.424V16.424H37.664V17.424H38.664ZM38.664 20.08H37.664V21.08H38.664V20.08ZM40.136 20.08H41.136V19.08H40.136V20.08ZM40.136 22V23H41.136V22H40.136ZM35.032 22H34.032V23H35.032V22ZM35.032 20.08V19.08H34.032V20.08H35.032ZM36.584 20.08V21.08H37.584V20.08H36.584ZM36.584 12.736H37.584V11.709L36.5573 11.7364L36.584 12.736ZM33.224 13.264L33.6528 14.1674L33.6592 14.1643L33.224 13.264ZM33.848 14.544V13.544H32.848V14.544H33.848ZM34.848 14.544C34.848 15.178 34.6832 15.6564 34.3956 16.0353L35.9884 17.2447C36.5755 16.4716 36.848 15.5527 36.848 14.544H34.848ZM34.401 16.0281C34.2135 16.2706 33.8607 16.488 33.096 16.488V18.488C34.2513 18.488 35.2959 18.1401 35.983 17.2519L34.401 16.0281ZM33.096 16.488C32.3219 16.488 31.9407 16.2743 31.7325 16.0274L30.2035 17.3166C30.9126 18.1577 31.9501 18.488 33.096 18.488V16.488ZM31.7325 16.0274C31.4384 15.6786 31.28 15.2562 31.28 14.704H29.28C29.28 15.6878 29.5802 16.5774 30.2035 17.3166L31.7325 16.0274ZM31.28 14.704C31.28 13.8766 31.6332 13.228 32.5112 12.6947L31.4728 10.9853C30.0682 11.8386 29.28 13.0994 29.28 14.704H31.28ZM32.5112 12.6947C33.4107 12.1482 35.0048 11.8 37.464 11.8V9.8C34.9099 9.8 32.8559 10.1451 31.4728 10.9853L32.5112 12.6947ZM37.464 11.8H44.024V9.8H37.464V11.8ZM43.024 10.8V14.08H45.024V10.8H43.024ZM44.024 13.08H42.184V15.08H44.024V13.08ZM43.184 14.08V12.72H41.184V14.08H43.184ZM42.184 11.72H38.664V13.72H42.184V11.72ZM37.664 12.72V15.504H39.664V12.72H37.664ZM38.664 16.504H39.912V14.504H38.664V16.504ZM40.912 15.504V14.544H38.912V15.504H40.912ZM39.912 15.544H41.752V13.544H39.912V15.544ZM40.752 14.544V18.384H42.752V14.544H40.752ZM41.752 17.384H39.912V19.384H41.752V17.384ZM40.912 18.384V17.424H38.912V18.384H40.912ZM39.912 16.424H38.664V18.424H39.912V16.424ZM37.664 17.424V20.08H39.664V17.424H37.664ZM38.664 21.08H40.136V19.08H38.664V21.08ZM39.136 20.08V22H41.136V20.08H39.136ZM40.136 21H35.032V23H40.136V21ZM36.032 22V20.08H34.032V22H36.032ZM35.032 21.08H36.584V19.08H35.032V21.08ZM37.584 20.08V12.736H35.584V20.08H37.584ZM36.5573 11.7364C34.9497 11.7792 33.6382 11.9531 32.7888 12.3637L33.6592 14.1643C34.0898 13.9562 35.0183 13.7781 36.6107 13.7356L36.5573 11.7364ZM32.7953 12.3606C32.3609 12.5667 31.9708 12.859 31.6914 13.2663C31.4072 13.6806 31.28 14.1523 31.28 14.64H33.28C33.28 14.509 33.3102 14.4421 33.3406 14.3977C33.3758 14.3463 33.4578 14.26 33.6527 14.1674L32.7953 12.3606ZM31.28 14.64C31.28 15.0741 31.3726 15.5865 31.733 15.9963C32.115 16.4307 32.6341 16.568 33.096 16.568V14.568C33.0524 14.568 33.0581 14.5615 33.0935 14.5749C33.1348 14.5906 33.1888 14.6232 33.235 14.6757C33.2787 14.7254 33.2907 14.7648 33.2906 14.7647C33.2897 14.7614 33.28 14.7246 33.28 14.64H31.28ZM33.096 16.568C33.5987 16.568 34.1162 16.3803 34.466 15.9039C34.7735 15.4852 34.848 14.9783 34.848 14.544H32.848C32.848 14.6567 32.8373 14.723 32.8297 14.7542C32.8222 14.7847 32.8223 14.7633 32.854 14.7201C32.89 14.671 32.9455 14.6234 33.0117 14.5934C33.0722 14.5659 33.1087 14.568 33.096 14.568V16.568ZM33.848 15.544H35.848V13.544H33.848V15.544ZM46.0618 21.296L45.2205 21.8368L45.225 21.8437L46.0618 21.296ZM45.4858 15.68H46.4858V14.68H45.4858V15.68ZM44.2538 15.68H43.2538V16.68H44.2538V15.68ZM44.2538 14V13H43.2538V14H44.2538ZM47.5658 14H48.5658V13H47.5658V14ZM47.7578 19.904L46.8799 20.3829L46.8881 20.3979L46.8968 20.4127L47.7578 19.904ZM50.6218 19.28L51.2186 20.0823L51.6218 19.7824V19.28H50.6218ZM50.6218 15.76H51.6218V14.76H50.6218V15.76ZM49.6298 15.76H48.6298V16.76H49.6298V15.76ZM49.6298 14V13H48.6298V14H49.6298ZM52.7018 14H53.7018V13H52.7018V14ZM52.7018 20.32H51.7018V21.32H52.7018V20.32ZM54.0138 20.32H55.0138V19.32H54.0138V20.32ZM54.0138 21.712L54.4854 22.5938L55.0138 22.3112V21.712H54.0138ZM50.7818 21.264L51.7127 20.8989L51.2748 19.7822L50.2551 20.4139L50.7818 21.264ZM48.1418 21.176C47.3193 21.176 47.0256 20.9426 46.8985 20.7483L45.225 21.8437C45.8659 22.8227 46.9588 23.176 48.1418 23.176V21.176ZM46.9029 20.7552C46.6598 20.377 46.4858 19.7738 46.4858 18.848H44.4858C44.4858 19.9916 44.6957 21.0203 45.2206 21.8368L46.9029 20.7552ZM46.4858 18.848V15.68H44.4858V18.848H46.4858ZM45.4858 14.68H44.2538V16.68H45.4858V14.68ZM45.2538 15.68V14H43.2538V15.68H45.2538ZM44.2538 15H47.5658V13H44.2538V15ZM46.5658 14V18.848H48.5658V14H46.5658ZM46.5658 18.848C46.5658 19.3755 46.6321 19.9286 46.8799 20.3829L48.6356 19.4251C48.6367 19.4271 48.6166 19.3893 48.5976 19.2851C48.5791 19.1831 48.5658 19.0401 48.5658 18.848H46.5658ZM46.8968 20.4127C47.3098 21.1117 48.0729 21.256 48.6378 21.256V19.256C48.5684 19.256 48.5193 19.2514 48.4871 19.2463C48.4548 19.2412 48.4457 19.2366 48.4531 19.2395C48.4614 19.2428 48.4882 19.2549 48.5224 19.2828C48.5579 19.3117 48.5919 19.35 48.6187 19.3953L46.8968 20.4127ZM48.6378 21.256C49.0829 21.256 49.5212 21.1011 49.9112 20.9093C50.3156 20.7103 50.7533 20.4285 51.2186 20.0823L50.0249 18.4777C49.6156 18.7822 49.2852 18.9883 49.0283 19.1147C48.9012 19.1772 48.8034 19.2146 48.7323 19.2354C48.6601 19.2566 48.6315 19.256 48.6378 19.256V21.256ZM51.6218 19.28V15.76H49.6218V19.28H51.6218ZM50.6218 14.76H49.6298V16.76H50.6218V14.76ZM50.6298 15.76V14H48.6298V15.76H50.6298ZM49.6298 15H52.7018V13H49.6298V15ZM51.7018 14V20.32H53.7018V14H51.7018ZM52.7018 21.32H54.0138V19.32H52.7018V21.32ZM53.0138 20.32V21.712H55.0138V20.32H53.0138ZM53.5421 20.8302C53.2779 20.9715 52.8549 21.08 52.2058 21.08V23.08C53.0499 23.08 53.8322 22.9432 54.4854 22.5938L53.5421 20.8302ZM52.2058 21.08C51.9542 21.08 51.8375 21.0327 51.7949 21.0084C51.7692 20.9936 51.7423 20.9744 51.7127 20.8989L49.8508 21.6291C50.0345 22.0976 50.3516 22.4864 50.8006 22.7436C51.2327 22.9913 51.7213 23.08 52.2058 23.08V21.08ZM50.2551 20.4139C49.3605 20.9682 48.6652 21.176 48.1418 21.176V23.176C49.1757 23.176 50.2403 22.7758 51.3084 22.1141L50.2551 20.4139ZM56.1399 21.296L55.2987 21.8368L55.3032 21.8437L56.1399 21.296ZM55.5639 15.68H56.5639V14.68H55.5639V15.68ZM54.3319 15.68H53.3319V16.68H54.3319V15.68ZM54.3319 14V13H53.3319V14H54.3319ZM57.6439 14H58.6439V13H57.6439V14ZM57.8359 19.904L56.958 20.3829L56.9662 20.3979L56.9749 20.4127L57.8359 19.904ZM60.6999 19.28L61.2967 20.0823L61.6999 19.7824V19.28H60.6999ZM60.6999 15.76H61.6999V14.76H60.6999V15.76ZM59.7079 15.76H58.7079V16.76H59.7079V15.76ZM59.7079 14V13H58.7079V14H59.7079ZM62.7799 14H63.7799V13H62.7799V14ZM62.7799 20.32H61.7799V21.32H62.7799V20.32ZM64.0919 20.32H65.0919V19.32H64.0919V20.32ZM64.0919 21.712L64.5635 22.5938L65.0919 22.3112V21.712H64.0919ZM60.8599 21.264L61.7908 20.8989L61.3529 19.7822L60.3332 20.4139L60.8599 21.264ZM58.2199 21.176C57.3975 21.176 57.1038 20.9426 56.9766 20.7483L55.3032 21.8437C55.944 22.8227 57.0369 23.176 58.2199 23.176V21.176ZM56.9811 20.7552C56.7379 20.377 56.5639 19.7738 56.5639 18.848H54.5639C54.5639 19.9916 54.7738 21.0203 55.2987 21.8368L56.9811 20.7552ZM56.5639 18.848V15.68H54.5639V18.848H56.5639ZM55.5639 14.68H54.3319V16.68H55.5639V14.68ZM55.3319 15.68V14H53.3319V15.68H55.3319ZM54.3319 15H57.6439V13H54.3319V15ZM56.6439 14V18.848H58.6439V14H56.6439ZM56.6439 18.848C56.6439 19.3755 56.7102 19.9286 56.958 20.3829L58.7138 19.4251C58.7149 19.4271 58.6947 19.3893 58.6757 19.2851C58.6572 19.1831 58.6439 19.0401 58.6439 18.848H56.6439ZM56.9749 20.4127C57.388 21.1117 58.151 21.256 58.7159 21.256V19.256C58.6465 19.256 58.5974 19.2514 58.5652 19.2463C58.5329 19.2412 58.5239 19.2366 58.5313 19.2395C58.5396 19.2428 58.5663 19.2549 58.6005 19.2828C58.636 19.3117 58.67 19.35 58.6968 19.3953L56.9749 20.4127ZM58.7159 21.256C59.161 21.256 59.5994 21.1011 59.9893 20.9093C60.3937 20.7103 60.8314 20.4285 61.2967 20.0823L60.103 18.4777C59.6937 18.7822 59.3633 18.9883 59.1065 19.1147C58.9793 19.1772 58.8815 19.2146 58.8105 19.2354C58.7382 19.2566 58.7097 19.256 58.7159 19.256V21.256ZM61.6999 19.28V15.76H59.6999V19.28H61.6999ZM60.6999 14.76H59.7079V16.76H60.6999V14.76ZM60.7079 15.76V14H58.7079V15.76H60.7079ZM59.7079 15H62.7799V13H59.7079V15ZM61.7799 14V20.32H63.7799V14H61.7799ZM62.7799 21.32H64.0919V19.32H62.7799V21.32ZM63.0919 20.32V21.712H65.0919V20.32H63.0919ZM63.6202 20.8302C63.3561 20.9715 62.933 21.08 62.2839 21.08V23.08C63.1281 23.08 63.9103 22.9432 64.5635 22.5938L63.6202 20.8302ZM62.2839 21.08C62.0323 21.08 61.9156 21.0327 61.8731 21.0084C61.8473 20.9936 61.8204 20.9744 61.7908 20.8989L59.9289 21.6291C60.1126 22.0976 60.4298 22.4864 60.8787 22.7436C61.3108 22.9913 61.7995 23.08 62.2839 23.08V21.08ZM60.3332 20.4139C59.4386 20.9682 58.7433 21.176 58.2199 21.176V23.176C59.2538 23.176 60.3185 22.7758 61.3865 22.1141L60.3332 20.4139ZM72.17 10H73.17V9H72.17V10ZM72.17 20.32H71.17V21.32H72.17V20.32ZM73.482 20.32H74.482V19.32H73.482V20.32ZM73.482 21.712L73.9537 22.5938L74.482 22.3112V21.712H73.482ZM70.09 21.12L71.0865 21.037L70.8587 18.3027L69.2737 20.5423L70.09 21.12ZM65.69 21.008L64.8913 21.6098L64.8953 21.615L65.69 21.008ZM65.818 15.024L65.0616 14.3698L65.0566 14.3758L65.818 15.024ZM70.09 13.936L69.9709 14.9289L71.09 15.0632V13.936H70.09ZM70.09 11.76H71.09V10.76H70.09V11.76ZM68.858 11.76H67.858V12.76H68.858V11.76ZM68.858 10V9H67.858V10H68.858ZM67.29 19.6L66.442 20.13L66.4467 20.1375L66.4516 20.145L67.29 19.6ZM69.61 19.488L68.7671 18.95L68.763 18.9564L68.759 18.9629L69.61 19.488ZM70.09 16.032H71.09V15.377L70.4896 15.1153L70.09 16.032ZM67.418 16.368L66.6728 15.7012L66.6717 15.7024L67.418 16.368ZM71.17 10V20.32H73.17V10H71.17ZM72.17 21.32H73.482V19.32H72.17V21.32ZM72.482 20.32V21.712H74.482V20.32H72.482ZM73.0103 20.8302C72.737 20.9764 72.3354 21.08 71.754 21.08V23.08C72.5592 23.08 73.3097 22.9382 73.9537 22.5938L73.0103 20.8302ZM71.754 21.08C71.3 21.08 71.1024 21.0065 71.0457 20.9738C71.0292 20.9643 71.0478 20.9717 71.0688 21.0049C71.0898 21.0381 71.0883 21.0574 71.0865 21.037L69.0935 21.203C69.1473 21.8486 69.484 22.3818 70.0463 22.7062C70.5443 22.9935 71.152 23.08 71.754 23.08V21.08ZM69.2737 20.5423C68.9474 21.0035 68.6074 21.16 68.202 21.16V23.16C69.3326 23.16 70.2513 22.6232 70.9063 21.6977L69.2737 20.5423ZM68.202 21.16C67.3809 21.16 66.8565 20.8878 66.4847 20.401L64.8953 21.615C65.6968 22.6642 66.8471 23.16 68.202 23.16V21.16ZM66.4887 20.4063C66.061 19.8386 65.81 19.0725 65.81 18.032H63.81C63.81 19.4022 64.1457 20.6201 64.8913 21.6097L66.4887 20.4063ZM65.81 18.032C65.81 17.0103 66.0873 16.2503 66.5794 15.6722L65.0566 14.3758C64.2047 15.3764 63.81 16.6217 63.81 18.032H65.81ZM66.5744 15.6782C67.0264 15.1555 67.6985 14.84 68.746 14.84V12.84C67.2548 12.84 65.9749 13.3139 65.0616 14.3698L66.5744 15.6782ZM68.746 14.84C69.0549 14.84 69.4602 14.8676 69.9709 14.9289L70.2091 12.9431C69.6531 12.8764 69.1625 12.84 68.746 12.84V14.84ZM71.09 13.936V11.76H69.09V13.936H71.09ZM70.09 10.76H68.858V12.76H70.09V10.76ZM69.858 11.76V10H67.858V11.76H69.858ZM68.858 11H72.17V9H68.858V11ZM65.89 17.968C65.89 18.7591 66.0493 19.5017 66.442 20.13L68.138 19.07C67.9973 18.8449 67.89 18.4996 67.89 17.968H65.89ZM66.4516 20.145C66.9001 20.835 67.5838 21.24 68.426 21.24V19.24C68.3082 19.24 68.2346 19.2183 68.1284 19.055L66.4516 20.145ZM68.426 21.24C69.3352 21.24 70.0175 20.732 70.461 20.0131L68.759 18.9629C68.5839 19.2467 68.4768 19.24 68.426 19.24V21.24ZM70.4529 20.026C70.8931 19.3365 71.09 18.5391 71.09 17.68H69.09C69.09 18.2289 68.9669 18.6369 68.7671 18.95L70.4529 20.026ZM71.09 17.68V16.032H69.09V17.68H71.09ZM70.4896 15.1153C69.9626 14.8856 69.4164 14.76 68.858 14.76V16.76C69.1103 16.76 69.3854 16.8157 69.6904 16.9487L70.4896 15.1153ZM68.858 14.76C68.0075 14.76 67.245 15.0616 66.6728 15.7012L68.1632 17.0348C68.3163 16.8637 68.5139 16.76 68.858 16.76V14.76ZM66.6717 15.7024C66.1158 16.3257 65.89 17.1191 65.89 17.968H67.89C67.89 17.4729 68.0162 17.1996 68.1643 17.0336L66.6717 15.7024ZM83.4418 14.544H84.4418V13.544H83.4418V14.544ZM82.7858 16.64L83.5767 17.2519L83.5822 17.2447L82.7858 16.64ZM78.5617 16.672L79.3263 16.0274L78.5617 16.672ZM79.5858 11.84L79.0666 10.9853L79.0666 10.9853L79.5858 11.84ZM91.6178 10.8H92.6178V9.8H91.6178V10.8ZM91.6178 14.08V15.08H92.6178V14.08H91.6178ZM89.7778 14.08H88.7778V15.08H89.7778V14.08ZM89.7778 12.72H90.7778V11.72H89.7778V12.72ZM86.2578 12.72V11.72H85.2578V12.72H86.2578ZM86.2578 15.504H85.2578V16.504H86.2578V15.504ZM87.5058 15.504V16.504H88.5058V15.504H87.5058ZM87.5058 14.544V13.544H86.5058V14.544H87.5058ZM89.3458 14.544H90.3458V13.544H89.3458V14.544ZM89.3458 18.384V19.384H90.3458V18.384H89.3458ZM87.5058 18.384H86.5058V19.384H87.5058V18.384ZM87.5058 17.424H88.5058V16.424H87.5058V17.424ZM86.2578 17.424V16.424H85.2578V17.424H86.2578ZM86.2578 20.08H85.2578V21.08H86.2578V20.08ZM87.7298 20.08H88.7298V19.08H87.7298V20.08ZM87.7298 22V23H88.7298V22H87.7298ZM82.6258 22H81.6258V23H82.6258V22ZM82.6258 20.08V19.08H81.6258V20.08H82.6258ZM84.1778 20.08V21.08H85.1778V20.08H84.1778ZM84.1778 12.736H85.1778V11.709L84.1511 11.7364L84.1778 12.736ZM80.8178 13.264L81.2465 14.1674L81.2529 14.1643L80.8178 13.264ZM81.4418 14.544V13.544H80.4418V14.544H81.4418ZM82.4418 14.544C82.4418 15.178 82.277 15.6564 81.9893 16.0353L83.5822 17.2447C84.1692 16.4716 84.4418 15.5527 84.4418 14.544H82.4418ZM81.9948 16.0281C81.8072 16.2706 81.4545 16.488 80.6898 16.488V18.488C81.845 18.488 82.8896 18.1401 83.5767 17.2519L81.9948 16.0281ZM80.6898 16.488C79.9156 16.488 79.5345 16.2743 79.3263 16.0274L77.7972 17.3166C78.5064 18.1577 79.5439 18.488 80.6898 18.488V16.488ZM79.3263 16.0274C79.0322 15.6786 78.8737 15.2562 78.8737 14.704H76.8737C76.8737 15.6878 77.174 16.5774 77.7972 17.3166L79.3263 16.0274ZM78.8737 14.704C78.8737 13.8766 79.2269 13.228 80.1049 12.6947L79.0666 10.9853C77.6619 11.8386 76.8737 13.0994 76.8737 14.704H78.8737ZM80.1049 12.6947C81.0045 12.1482 82.5985 11.8 85.0578 11.8V9.8C82.5036 9.8 80.4497 10.1451 79.0666 10.9853L80.1049 12.6947ZM85.0578 11.8H91.6178V9.8H85.0578V11.8ZM90.6178 10.8V14.08H92.6178V10.8H90.6178ZM91.6178 13.08H89.7778V15.08H91.6178V13.08ZM90.7778 14.08V12.72H88.7778V14.08H90.7778ZM89.7778 11.72H86.2578V13.72H89.7778V11.72ZM85.2578 12.72V15.504H87.2578V12.72H85.2578ZM86.2578 16.504H87.5058V14.504H86.2578V16.504ZM88.5058 15.504V14.544H86.5058V15.504H88.5058ZM87.5058 15.544H89.3458V13.544H87.5058V15.544ZM88.3458 14.544V18.384H90.3458V14.544H88.3458ZM89.3458 17.384H87.5058V19.384H89.3458V17.384ZM88.5058 18.384V17.424H86.5058V18.384H88.5058ZM87.5058 16.424H86.2578V18.424H87.5058V16.424ZM85.2578 17.424V20.08H87.2578V17.424H85.2578ZM86.2578 21.08H87.7298V19.08H86.2578V21.08ZM86.7298 20.08V22H88.7298V20.08H86.7298ZM87.7298 21H82.6258V23H87.7298V21ZM83.6258 22V20.08H81.6258V22H83.6258ZM82.6258 21.08H84.1778V19.08H82.6258V21.08ZM85.1778 20.08V12.736H83.1778V20.08H85.1778ZM84.1511 11.7364C82.5435 11.7792 81.232 11.9531 80.3826 12.3637L81.2529 14.1643C81.6835 13.9562 82.612 13.7781 84.2044 13.7356L84.1511 11.7364ZM80.389 12.3606C79.9547 12.5667 79.5646 12.859 79.2851 13.2663C79.0009 13.6806 78.8738 14.1523 78.8738 14.64H80.8738C80.8738 14.509 80.9039 14.4421 80.9344 14.3977C80.9696 14.3463 81.0515 14.26 81.2465 14.1674L80.389 12.3606ZM78.8738 14.64C78.8738 15.0741 78.9664 15.5865 79.3268 15.9963C79.7088 16.4307 80.2278 16.568 80.6898 16.568V14.568C80.6461 14.568 80.6519 14.5615 80.6872 14.5749C80.7285 14.5906 80.7826 14.6232 80.8287 14.6757C80.8724 14.7254 80.8844 14.7648 80.8844 14.7647C80.8834 14.7614 80.8738 14.7246 80.8738 14.64H78.8738ZM80.6898 16.568C81.1924 16.568 81.7099 16.3803 82.0598 15.9039C82.3673 15.4852 82.4418 14.9783 82.4418 14.544H80.4418C80.4418 14.6567 80.4311 14.723 80.4234 14.7542C80.416 14.7847 80.416 14.7633 80.4477 14.7201C80.4838 14.671 80.5393 14.6234 80.6054 14.5934C80.666 14.5659 80.7024 14.568 80.6898 14.568V16.568ZM81.4418 15.544H83.4418V13.544H81.4418V15.544ZM96.9675 20.96H97.9675V18.1808L96.1968 20.3229L96.9675 20.96ZM92.8555 21.536L93.5273 20.7953L93.5273 20.7953L92.8555 21.536ZM93.0635 17.872L92.405 17.1194L92.405 17.1194L93.0635 17.872ZM96.9675 17.088V18.088H97.9675V17.088H96.9675ZM94.3435 15.968L94.0715 15.0057L93.3435 15.2114V15.968H94.3435ZM94.3435 16.88V17.88H95.3435V16.88H94.3435ZM92.5035 16.88H91.5035V17.88H92.5035V16.88ZM92.5035 14.496L92.142 13.5636L91.5035 13.8112V14.496H92.5035ZM94.3275 14.016L94.1631 13.0296L94.1606 13.03L94.3275 14.016ZM98.2635 14.576L97.579 15.3051L97.5871 15.3125L98.2635 14.576ZM99.0475 20.32H98.0475V21.32H99.0475V20.32ZM100.36 20.32H101.36V19.32H100.36V20.32ZM100.36 21.712L100.831 22.5938L101.36 22.3112V21.712H100.36ZM96.9675 18.928L97.7745 19.5185L97.9675 19.2548V18.928H96.9675ZM96.9675 18.864H97.9675V17.864H96.9675V18.864ZM96.1968 20.3229C95.6678 20.9627 95.1921 21.16 94.7595 21.16V23.16C95.9483 23.16 96.9445 22.5573 97.7382 21.5971L96.1968 20.3229ZM94.7595 21.16C94.1185 21.16 93.751 20.9982 93.5273 20.7953L92.1837 22.2767C92.8773 22.9058 93.7792 23.16 94.7595 23.16V21.16ZM93.5273 20.7953C93.3202 20.6074 93.1675 20.3196 93.1675 19.792H91.1675C91.1675 20.7578 91.4735 21.6326 92.1837 22.2767L93.5273 20.7953ZM93.1675 19.792C93.1675 19.3384 93.3298 18.9677 93.722 18.6246L92.405 17.1194C91.6025 17.8216 91.1675 18.7309 91.1675 19.792H93.1675ZM93.722 18.6246C94.0684 18.3215 94.6729 18.088 95.7035 18.088V16.088C94.4088 16.088 93.2533 16.3772 92.405 17.1194L93.722 18.6246ZM95.7035 18.088H96.9675V16.088H95.7035V18.088ZM97.9675 17.088V16.512H95.9675V17.088H97.9675ZM97.9675 16.512C97.9675 16.0392 97.8078 15.5269 97.3546 15.1658C96.9448 14.8394 96.4443 14.76 96.0235 14.76V16.76C96.1177 16.76 96.1656 16.7697 96.1799 16.7735C96.1922 16.7768 96.1584 16.77 96.1084 16.7302C96.0538 16.6866 96.0107 16.628 95.986 16.569C95.9639 16.5161 95.9675 16.4896 95.9675 16.512H97.9675ZM96.0235 14.76C95.3228 14.76 94.6685 14.837 94.0715 15.0057L94.6155 16.9303C94.9998 16.8217 95.4655 16.76 96.0235 16.76V14.76ZM93.3435 15.968V16.88H95.3435V15.968H93.3435ZM94.3435 15.88H92.5035V17.88H94.3435V15.88ZM93.5035 16.88V14.496H91.5035V16.88H93.5035ZM92.865 15.4284C93.3113 15.2553 93.8516 15.1108 94.4944 15.002L94.1606 13.03C93.4168 13.1559 92.7411 13.3313 92.142 13.5636L92.865 15.4284ZM94.4919 15.0024C95.1665 14.89 95.6938 14.84 96.0875 14.84V12.84C95.5426 12.84 94.8965 12.9074 94.1631 13.0296L94.4919 15.0024ZM96.0875 14.84C96.8386 14.84 97.2914 15.0351 97.5791 15.3051L98.9479 13.8469C98.1902 13.1356 97.1924 12.84 96.0875 12.84V14.84ZM97.5871 15.3125C97.8733 15.5754 98.0475 15.9374 98.0475 16.512H100.048C100.048 15.4653 99.6991 14.5366 98.9399 13.8395L97.5871 15.3125ZM98.0475 16.512V20.32H100.048V16.512H98.0475ZM99.0475 21.32H100.36V19.32H99.0475V21.32ZM99.3595 20.32V21.712H101.36V20.32H99.3595ZM99.8878 20.8302C99.6145 20.9764 99.2129 21.08 98.6315 21.08V23.08C99.4367 23.08 100.187 22.9382 100.831 22.5938L99.8878 20.8302ZM98.6315 21.08C98.4071 21.08 98.2408 21.0608 98.1224 21.0343C98.0037 21.0076 97.9534 20.9782 97.9419 20.9704C97.937 20.9671 97.9544 20.9795 97.9676 21.0062C97.9787 21.0285 97.9675 21.0224 97.9675 20.96H95.9675C95.9675 21.6206 96.236 22.233 96.8251 22.6296C97.3439 22.9788 97.9961 23.08 98.6315 23.08V21.08ZM94.9035 21.24C96.089 21.24 97.0396 20.523 97.7745 19.5185L96.1605 18.3375C95.6154 19.0824 95.19 19.24 94.9035 19.24V21.24ZM97.9675 18.928V18.864H95.9675V18.928H97.9675ZM96.9675 17.864H95.6875V19.864H96.9675V17.864ZM95.6875 17.864C95.1171 17.864 94.4992 17.9565 94.0113 18.3113L95.1877 19.9287C95.1716 19.9404 95.1895 19.9219 95.2765 19.9014C95.3635 19.881 95.4965 19.864 95.6875 19.864V17.864ZM94.0113 18.3113C93.5202 18.6684 93.2475 19.1972 93.2475 19.808H95.2475C95.2475 19.8035 95.2474 19.8332 95.2257 19.8755C95.2043 19.9175 95.1812 19.9335 95.1877 19.9287L94.0113 18.3113ZM93.2475 19.808C93.2475 20.2486 93.4396 20.6893 93.8615 20.9672C94.2104 21.1969 94.6068 21.24 94.9035 21.24V19.24C94.8459 19.24 94.8251 19.235 94.8309 19.2363C94.8363 19.2374 94.8896 19.2495 94.9615 19.2968C95.0401 19.3486 95.123 19.4313 95.1807 19.5454C95.2365 19.6556 95.2475 19.7526 95.2475 19.808H93.2475ZM101.172 15.76H100.172V16.76H101.172V15.76ZM101.172 14V13H100.172V14H101.172ZM104.484 14H105.484V13H104.484V14ZM104.484 20.24H103.484V21.24H104.484V20.24ZM105.876 20.24H106.876V19.24H105.876V20.24ZM105.876 22V23H106.876V22H105.876ZM101.156 22H100.156V23H101.156V22ZM101.156 20.24V19.24H100.156V20.24H101.156ZM102.404 20.24V21.24H103.404V20.24H102.404ZM102.404 15.76H103.404V14.76H102.404V15.76ZM102.628 12.864L101.871 13.5176L101.879 13.5273L101.888 13.5367L102.628 12.864ZM102.66 11.168L103.383 11.8585L103.391 11.8505L103.398 11.8423L102.66 11.168ZM104.308 11.152L105.064 10.4984L105.064 10.4984L104.308 11.152ZM104.276 12.864L104.999 13.5545L105.007 13.5465L105.014 13.5383L104.276 12.864ZM102.172 15.76V14H100.172V15.76H102.172ZM101.172 15H104.484V13H101.172V15ZM103.484 14V20.24H105.484V14H103.484ZM104.484 21.24H105.876V19.24H104.484V21.24ZM104.876 20.24V22H106.876V20.24H104.876ZM105.876 21H101.156V23H105.876V21ZM102.156 22V20.24H100.156V22H102.156ZM101.156 21.24H102.404V19.24H101.156V21.24ZM103.404 20.24V15.76H101.404V20.24H103.404ZM102.404 14.76H101.172V16.76H102.404V14.76ZM103.444 12.216C103.42 12.216 103.405 12.2139 103.398 12.2124C103.394 12.2117 103.391 12.211 103.39 12.2105C103.388 12.2101 103.388 12.2098 103.388 12.2098C103.388 12.2097 103.388 12.2097 103.388 12.2097C103.387 12.2097 103.387 12.2093 103.386 12.2085C103.384 12.207 103.377 12.2022 103.368 12.1913L101.888 13.5367C102.3 13.9897 102.845 14.216 103.444 14.216V12.216ZM103.384 12.2104C103.35 12.17 103.324 12.124 103.324 12.016H101.324C101.324 12.5694 101.5 13.0886 101.871 13.5176L103.384 12.2104ZM103.324 12.016C103.324 11.937 103.34 11.9032 103.383 11.8585L101.936 10.4775C101.531 10.9022 101.324 11.4337 101.324 12.016H103.324ZM103.398 11.8423C103.426 11.8121 103.44 11.8066 103.44 11.8065C103.44 11.8065 103.453 11.8 103.492 11.8V9.8C102.878 9.8 102.334 10.042 101.921 10.4937L103.398 11.8423ZM103.492 11.8C103.547 11.8 103.562 11.8091 103.556 11.8062C103.553 11.8051 103.55 11.8032 103.547 11.8012C103.544 11.7993 103.546 11.7999 103.551 11.8056L105.064 10.4984C104.651 10.02 104.091 9.8 103.492 9.8V11.8ZM103.551 11.8056C103.586 11.846 103.612 11.892 103.612 12H105.612C105.612 11.4466 105.435 10.9274 105.064 10.4984L103.551 11.8056ZM103.612 12C103.612 12.0799 103.594 12.1277 103.537 12.1897L105.014 13.5383C105.405 13.1096 105.612 12.5815 105.612 12H103.612ZM103.552 12.1735C103.527 12.1998 103.513 12.2056 103.51 12.207C103.506 12.2086 103.488 12.216 103.444 12.216V14.216C104.042 14.216 104.582 13.9911 104.999 13.5545L103.552 12.1735ZM109.913 20.24H108.913V21.24H109.913V20.24ZM111.065 20.24H112.065V19.24H111.065V20.24ZM111.065 22V23H112.065V22H111.065ZM106.601 22H105.601V23H106.601V22ZM106.601 20.24V19.24H105.601V20.24H106.601ZM107.833 20.24V21.24H108.833V20.24H107.833ZM107.833 15.76H108.833V14.76H107.833V15.76ZM106.601 15.76H105.601V16.76H106.601V15.76ZM106.601 14V13H105.601V14H106.601ZM109.609 14L110.585 13.7792L110.408 13H109.609V14ZM109.801 14.848L108.826 15.0688L109.149 16.4974L110.362 15.6759L109.801 14.848ZM112.393 13.84L112.6 12.8616L112.498 12.84H112.393V13.84ZM113.529 14.08L114.487 14.3667L114.799 13.3261L113.736 13.1016L113.529 14.08ZM112.921 16.112L112.664 17.0782L113.601 17.3282L113.879 16.3987L112.921 16.112ZM112.201 15.92L112.459 14.9538L112.332 14.92H112.201V15.92ZM109.913 16.592L109.425 15.7195L108.913 16.0059V16.592H109.913ZM109.913 21.24H111.065V19.24H109.913V21.24ZM110.065 20.24V22H112.065V20.24H110.065ZM111.065 21H106.601V23H111.065V21ZM107.601 22V20.24H105.601V22H107.601ZM106.601 21.24H107.833V19.24H106.601V21.24ZM108.833 20.24V15.76H106.833V20.24H108.833ZM107.833 14.76H106.601V16.76H107.833V14.76ZM107.601 15.76V14H105.601V15.76H107.601ZM106.601 15H109.609V13H106.601V15ZM108.634 14.2208L108.826 15.0688L110.777 14.6272L110.585 13.7792L108.634 14.2208ZM110.362 15.6759C111.283 15.052 111.947 14.84 112.393 14.84V12.84C111.367 12.84 110.303 13.3 109.24 14.0201L110.362 15.6759ZM112.187 14.8184L113.323 15.0584L113.736 13.1016L112.6 12.8616L112.187 14.8184ZM112.571 13.7933L111.963 15.8253L113.879 16.3987L114.487 14.3667L112.571 13.7933ZM113.179 15.1458L112.459 14.9538L111.944 16.8862L112.664 17.0782L113.179 15.1458ZM112.201 14.92C111.265 14.92 110.335 15.2096 109.425 15.7195L110.402 17.4645C111.091 17.0784 111.686 16.92 112.201 16.92V14.92ZM108.913 16.592V20.24H110.913V16.592H108.913Z" fill="black"/>
</g>
<defs>
<filter id="filter0_d_1829_9146" x="26.2803" y="10" width="91.249" height="20.1758" filterUnits="userSpaceOnUse" color-interpolation-filters="sRGB">
<feFlood flood-opacity="0" result="BackgroundImageFix"/>
<feColorMatrix in="SourceAlpha" type="matrix" values="0 0 0 0 0 0 0 0 0 0 0 0 0 0 0 0 0 0 127 0" result="hardAlpha"/>
<feOffset dy="4"/>
<feGaussianBlur stdDeviation="2"/>
<feComposite in2="hardAlpha" operator="out"/>
<feColorMatrix type="matrix" values="0 0 0 0 0 0 0 0 0 0 0 0 0 0 0 0 0 0 0.25 0"/>
<feBlend mode="normal" in2="BackgroundImageFix" result="effect1_dropShadow_1829_9146"/>
<feBlend mode="normal" in="SourceGraphic" in2="effect1_dropShadow_1829_9146" result="shape"/>
</filter>
</defs>
</svg>
