<svg width="50" height="39" viewBox="0 0 50 39" fill="none" xmlns="http://www.w3.org/2000/svg">
<g clip-path="url(#clip0_852_598)">
<path d="M9.08945 38.675V36.1025C9.08945 35.1162 8.48906 34.4732 7.45996 34.4732C6.94551 34.4732 6.38809 34.6447 6.00215 35.2021C5.70215 34.7305 5.27344 34.4732 4.63027 34.4732C4.20137 34.4732 3.77285 34.6018 3.42969 35.0734V34.559H2.5293V38.675H3.42969V36.4025C3.42969 35.6738 3.81562 35.3307 4.41602 35.3307C5.01602 35.3307 5.31641 35.7166 5.31641 36.4025V38.675H6.2168V36.4025C6.2168 35.6738 6.64531 35.3307 7.20273 35.3307C7.80312 35.3307 8.10313 35.7166 8.10313 36.4025V38.675H9.08945ZM22.4236 34.559H20.966V33.3156H20.0656V34.559H19.251V35.3734H20.0654V37.2602C20.0654 38.2035 20.4514 38.7607 21.4805 38.7607C21.8664 38.7607 22.2949 38.6322 22.5953 38.4607L22.3379 37.6889C22.0807 37.8604 21.7807 37.9033 21.5662 37.9033C21.1375 37.9033 20.966 37.6461 20.966 37.2172V35.3734H22.4236V34.559ZM30.0557 34.473C29.5412 34.473 29.1982 34.7305 28.9838 35.0734V34.559H28.0834V38.675H28.9838V36.3598C28.9838 35.6738 29.2838 35.2879 29.8412 35.2879C30.0127 35.2879 30.2271 35.3309 30.3986 35.3736L30.6559 34.5162C30.4844 34.4732 30.2271 34.4732 30.0557 34.4732V34.473ZM18.5221 34.902C18.0932 34.6018 17.493 34.4732 16.8498 34.4732C15.8209 34.4732 15.135 34.9877 15.135 35.8023C15.135 36.4885 15.6494 36.8742 16.5498 37.0029L16.9785 37.0459C17.4502 37.1314 17.7074 37.2602 17.7074 37.4746C17.7074 37.7746 17.3645 37.9891 16.7641 37.9891C16.1639 37.9891 15.6922 37.7746 15.392 37.5604L14.9633 38.2463C15.435 38.5893 16.0781 38.7607 16.7211 38.7607C17.9217 38.7607 18.6078 38.2035 18.6078 37.4316C18.6078 36.7027 18.0504 36.3168 17.1928 36.1883L16.7641 36.1453C16.3781 36.1023 16.0781 36.0168 16.0781 35.7596C16.0781 35.4594 16.3781 35.2879 16.8498 35.2879C17.3645 35.2879 17.8789 35.5021 18.1361 35.6309L18.5221 34.902ZM42.4469 34.4732C41.9322 34.4732 41.5893 34.7305 41.3748 35.0734V34.559H40.4744V38.675H41.3748V36.3598C41.3748 35.6738 41.675 35.2879 42.2322 35.2879C42.4039 35.2879 42.6184 35.3309 42.7898 35.3736L43.0471 34.5162C42.8756 34.4732 42.6184 34.4732 42.4469 34.4732ZM30.9561 36.617C30.9561 37.8604 31.8135 38.7607 33.1428 38.7607C33.743 38.7607 34.1717 38.6322 34.6004 38.2893L34.1717 37.5604C33.8287 37.8176 33.4857 37.9461 33.0998 37.9461C32.3709 37.9461 31.8564 37.4316 31.8564 36.617C31.8564 35.8453 32.3709 35.3307 33.0998 35.2879C33.4857 35.2879 33.8287 35.4164 34.1717 35.6738L34.6004 34.9449C34.1717 34.6018 33.743 34.4732 33.1428 34.4732C31.8135 34.4732 30.9561 35.3736 30.9561 36.617ZM39.274 36.617V34.559H38.3736V35.0734C38.0734 34.6877 37.6447 34.4732 37.0873 34.4732C35.9297 34.4732 35.0293 35.3736 35.0293 36.617C35.0293 37.8604 35.9297 38.7607 37.0873 38.7607C37.6875 38.7607 38.1164 38.5465 38.3736 38.1605V38.675H39.274V36.617ZM35.9725 36.617C35.9725 35.8881 36.4441 35.2879 37.2158 35.2879C37.9447 35.2879 38.4594 35.8453 38.4594 36.617C38.4594 37.3459 37.9447 37.9461 37.2158 37.9461C36.4441 37.9031 35.9725 37.3459 35.9725 36.617ZM25.2107 34.4732C24.0102 34.4732 23.1525 35.3307 23.1525 36.617C23.1525 37.9033 24.01 38.7607 25.2535 38.7607C25.8537 38.7607 26.4541 38.5893 26.9258 38.2035L26.4969 37.5604C26.1539 37.8176 25.7252 37.9891 25.2965 37.9891C24.7391 37.9891 24.1816 37.7318 24.0529 37.0027H27.0973V36.66C27.1402 35.3307 26.3684 34.4732 25.2105 34.4732H25.2107ZM25.2107 35.2449C25.768 35.2449 26.1541 35.5881 26.2396 36.2312H24.0959C24.1816 35.6738 24.5676 35.2449 25.2107 35.2449ZM47.549 36.617V32.9297H46.6486V35.0734C46.3484 34.6877 45.9197 34.4732 45.3623 34.4732C44.2047 34.4732 43.3043 35.3736 43.3043 36.617C43.3043 37.8604 44.2047 38.7607 45.3623 38.7607C45.9627 38.7607 46.3914 38.5465 46.6486 38.1605V38.675H47.549V36.617ZM44.2477 36.617C44.2477 35.8881 44.7191 35.2879 45.491 35.2879C46.2199 35.2879 46.7344 35.8453 46.7344 36.617C46.7344 37.3459 46.2199 37.9461 45.491 37.9461C44.7191 37.9031 44.2477 37.3459 44.2477 36.617ZM14.1486 36.617V34.559H13.2482V35.0734C12.948 34.6877 12.5193 34.4732 11.9619 34.4732C10.8043 34.4732 9.90391 35.3736 9.90391 36.617C9.90391 37.8604 10.8043 38.7607 11.9619 38.7607C12.5623 38.7607 12.991 38.5465 13.2482 38.1605V38.675H14.1486V36.617ZM10.8043 36.617C10.8043 35.8881 11.276 35.2879 12.0477 35.2879C12.7766 35.2879 13.2912 35.8453 13.2912 36.617C13.2912 37.3459 12.7766 37.9461 12.0477 37.9461C11.276 37.9031 10.8043 37.3459 10.8043 36.617Z" fill="black"/>
<path d="M18.2227 3.30078H31.7285V27.5686H18.2227V3.30078Z" fill="#FF5F00"/>
<path d="M19.0799 15.4354C19.0799 10.5047 21.3951 6.13125 24.9537 3.30137C22.3385 1.24336 19.0371 0 15.4355 0C6.90293 0 0 6.90293 0 15.4354C0 23.9676 6.90293 30.8707 15.4354 30.8707C19.0369 30.8707 22.3383 29.6273 24.9537 27.5691C21.3951 24.7822 19.0799 20.366 19.0799 15.4354Z" fill="#EB001B"/>
<path d="M49.9508 15.4354C49.9508 23.9676 43.0479 30.8707 34.5154 30.8707C30.9139 30.8707 27.6125 29.6273 24.9971 27.5691C28.5986 24.7395 30.8711 20.366 30.8711 15.4354C30.8711 10.5047 28.5557 6.13125 24.9971 3.30137C27.6123 1.24336 30.9139 0 34.5154 0C43.0479 0 49.951 6.9459 49.951 15.4354H49.9508Z" fill="#F79E1B"/>
</g>
<defs>
<clipPath id="clip0_852_598">
<rect width="50" height="38.8672" fill="white"/>
</clipPath>
</defs>
</svg>
