<svg width="50" height="17" viewBox="0 0 50 17" fill="none" xmlns="http://www.w3.org/2000/svg">
<path d="M25.8588 6.01562C25.8303 8.26484 27.8633 9.51992 29.3947 10.2662C30.9682 11.0318 31.4967 11.5229 31.4904 12.2076C31.4787 13.2555 30.2354 13.718 29.0719 13.7359C27.042 13.7674 25.8617 13.1879 24.9234 12.7496L24.1922 16.1713C25.1336 16.6051 26.8768 16.9834 28.6844 17C32.9275 17 35.7035 14.9055 35.7186 11.658C35.7352 7.53652 30.0178 7.3084 30.0568 5.46621C30.0703 4.90762 30.6033 4.31152 31.7713 4.15996C32.3494 4.0834 33.9453 4.02481 35.7547 4.85801L36.4648 1.54746C35.4918 1.19316 34.2412 0.853907 32.6842 0.853907C28.6904 0.853907 25.8814 2.97695 25.8588 6.01562ZM43.2887 1.13906C42.5139 1.13906 41.8609 1.59101 41.5695 2.28457L35.5084 16.7568H39.7484L40.5922 14.425H45.7734L46.2629 16.7568H50L46.7389 1.13906H43.2887ZM43.8818 5.35801L45.1055 11.2227H41.7543L43.8818 5.35801ZM20.718 1.13926L17.3758 16.7566H21.4162L24.7568 1.13887H20.718V1.13926ZM14.7408 1.13887L10.5354 11.7691L8.83418 2.73066C8.63457 1.72168 7.84629 1.13906 6.9709 1.13906H0.0962891L0 1.59258C1.41133 1.89883 3.01484 2.39277 3.98633 2.92129C4.58086 3.24414 4.75039 3.52637 4.9457 4.29356L8.16777 16.7568H12.4375L18.9836 1.13906H14.7408" fill="url(#paint0_linear_852_617)"/>
<defs>
<linearGradient id="paint0_linear_852_617" x1="22.987" y1="17.3239" x2="23.4544" y2="0.741616" gradientUnits="userSpaceOnUse">
<stop stop-color="#222357"/>
<stop offset="1" stop-color="#254AA5"/>
</linearGradient>
</defs>
</svg>
